<svg
    height="50px"
    width="50px "
    viewBox="0 0 147.9685 148"
>
    <path
        d="M5.41608 0C2.42486 0 0 2.42486 0 5.41608L0 5.4242C0 8.41542 2.42486 10.8322 5.41608 10.8322L43.1844 10.8322L1.65599 52.3606C-0.459122 54.4757 -0.464867 57.8992 1.65025 60.0143L1.65599 60.0201C3.7711 62.1352 7.20037 62.1352 9.31548 60.0201L49.6386 19.6969L49.6386 54.3489C49.6386 57.3401 52.0553 59.7649 55.0466 59.7649L55.0547 59.7649C58.0459 59.7649 60.4708 57.3401 60.4708 54.3489L60.4708 5.90249C60.4708 3.30603 58.6437 1.13631 56.2051 0.608843C55.4579 0.219861 54.6085 0 53.7078 0L5.41608 0Z"
        fill="#3050EB"
        fill-opacity="1"
        fill-rule="evenodd"
        transform="matrix(1 0 0 1 19.9679 65.5965)"
    />
    <path
        d="M5.29221 0C2.3694 0 0 2.3694 0 5.29221L0 5.30015C0 8.22296 2.3694 10.5844 5.29221 10.5844L47.5771 10.5844C50.4999 10.5844 52.8693 8.22296 52.8693 5.30015L52.8693 5.29221C52.8693 2.3694 50.4999 0 47.5771 0L5.29221 0Z"
        fill="#3050EB"
        fill-opacity="1"
        fill-rule="nonzero"
        transform="matrix(1 -2.18557e-08 2.18557e-08 1 19.9047 43.7007)"
    />
    <path
        d="M5.41608 0C2.42486 0 0 2.42486 0 5.41608L0 5.4242C0 8.41542 2.42486 10.8322 5.41608 10.8322L46.2664 10.8322C49.2576 10.8322 51.6824 8.41542 51.6824 5.4242L51.6824 5.41608C51.6824 2.42486 49.2576 0 46.2664 0L5.41608 0Z"
        fill="#3050EB"
        fill-opacity="1"
        fill-rule="nonzero"
        transform="matrix(2.18557e-08 1 -1 2.18557e-08 103.445 74.0352)"
    />
    <path
        d="M5.41608 3.69633e-06C2.42486 3.7617e-06 0 2.42487 0 5.41608L0 5.42421C0 8.41543 2.42486 10.8322 5.41608 10.8322L85.9681 10.8322L61.6755 35.1248C59.5604 37.2399 59.5546 40.6634 61.6698 42.7785L61.6755 42.7843C63.7906 44.8994 67.2199 44.8994 69.335 42.7843L94.7357 17.3836L94.7357 97.295C94.7357 100.286 97.1524 102.711 100.144 102.711L100.152 102.711C103.143 102.711 105.568 100.286 105.568 97.295L105.568 5.46085C105.568 2.67635 103.467 182634 100.763 0.0789027C100.462 0.02703 100.153 0 99.8369 0L5.41608 3.69633e-06Z"
        fill="#3050EB"
        fill-opacity="1"
        fill-rule="evenodd"
        transform="matrix(1 0 0 1 20.2665 22.5119)"
    />
</svg>